<svg width="49" height="49" viewBox="0 0 49 49" fill="none" xmlns="http://www.w3.org/2000/svg">
<path d="M18.8854 44.9167L18.0687 38.3834C17.6263 38.2132 17.2095 38.0091 16.8182 37.7709C16.4269 37.5327 16.044 37.2775 15.6697 37.0052L9.59578 39.5573L3.9812 29.8594L9.23849 25.8782C9.20447 25.64 9.18745 25.4103 9.18745 25.1891V23.811C9.18745 23.5898 9.20447 23.3601 9.23849 23.1219L3.9812 19.1407L9.59578 9.44275L15.6697 11.9948C16.044 11.7226 16.4354 11.4674 16.8437 11.2292C17.252 10.991 17.6604 10.7868 18.0687 10.6167L18.8854 4.08337H30.1145L30.9312 10.6167C31.3736 10.7868 31.7904 10.991 32.1817 11.2292C32.573 11.4674 32.9559 11.7226 33.3302 11.9948L39.4041 9.44275L45.0187 19.1407L39.7614 23.1219C39.7954 23.3601 39.8125 23.5898 39.8125 23.811V25.1891C39.8125 25.4103 39.7784 25.64 39.7104 25.8782L44.9677 29.8594L39.3531 39.5573L33.3302 37.0052C32.9559 37.2775 32.5645 37.5327 32.1562 37.7709C31.7479 38.0091 31.3395 38.2132 30.9312 38.3834L30.1145 44.9167H18.8854ZM24.602 31.6459C26.5756 31.6459 28.26 30.9483 29.6552 29.5532C31.0503 28.158 31.7479 26.4737 31.7479 24.5C31.7479 22.5264 31.0503 20.8421 29.6552 19.4469C28.26 18.0518 26.5756 17.3542 24.602 17.3542C22.5944 17.3542 20.9015 18.0518 19.5234 19.4469C18.1453 20.8421 17.4562 22.5264 17.4562 24.5C17.4562 26.4737 18.1453 28.158 19.5234 29.5532C20.9015 30.9483 22.5944 31.6459 24.602 31.6459Z" fill="#003CFF"/>
</svg>
